<svg xmlns="http://www.w3.org/2000/svg" width="700" height="500" viewBox="0 0 700 500"><rect width="100%" height="100%" fill="#DDDDDD"/><path fill="#999999" d="M141.94 216.38h46.45v4.98q0 2.23-.47 3.6-.46 1.37-.93 2.3l-25.48 52.45q-.79 1.63-2.23 2.77t-3.86 1.14h-8.32l25.99-51.38q.88-1.58 1.74-2.91.86-1.32 1.93-2.53h-32.17q-1.07 0-1.86-.79t-.79-1.86zM243.17 250q0 8.79-1.89 15.28-1.88 6.48-5.21 10.71-3.32 4.24-7.85 6.3-4.54 2.07-9.79 2.07-5.26 0-9.74-2.07-4.49-2.06-7.79-6.3-3.3-4.23-5.16-10.71-1.86-6.49-1.86-15.28 0-8.83 1.86-15.3 1.86-6.46 5.16-10.69t7.79-6.3q4.48-2.07 9.74-2.07 5.25 0 9.79 2.07 4.53 2.07 7.85 6.3 3.33 4.23 5.21 10.69 1.89 6.47 1.89 15.3m-11.86 0q0-7.3-1.07-12.09t-2.86-7.63q-1.79-2.83-4.12-3.97-2.32-1.14-4.83-1.14-2.47 0-4.77 1.14t-4.07 3.97q-1.76 2.84-2.81 7.63T205.73 250t1.05 12.09 2.81 7.63q1.77 2.83 4.07 3.97t4.77 1.14q2.51 0 4.83-1.14 2.33-1.14 4.12-3.97 1.79-2.84 2.86-7.63t1.07-12.09m65.8 0q0 8.79-1.89 15.28-1.88 6.48-5.21 10.71-3.32 4.24-7.85 6.3-4.54 2.07-9.79 2.07-5.26 0-9.74-2.07-4.49-2.06-7.79-6.3-3.3-4.23-5.16-10.71-1.86-6.49-1.86-15.28 0-8.83 1.86-15.3 1.86-6.46 5.16-10.69t7.79-6.3q4.48-2.07 9.74-2.07 5.25 0 9.79 2.07 4.53 2.07 7.85 6.3 3.33 4.23 5.21 10.69 1.89 6.47 1.89 15.3m-11.86 0q0-7.3-1.07-12.09t-2.86-7.63q-1.79-2.83-4.12-3.97-2.32-1.14-4.83-1.14-2.47 0-4.77 1.14t-4.07 3.97q-1.76 2.84-2.81 7.63T259.67 250t1.05 12.09 2.81 7.63q1.77 2.83 4.07 3.97t4.77 1.14q2.51 0 4.83-1.14 2.33-1.14 4.12-3.97 1.79-2.84 2.86-7.63t1.07-12.09m85.7 18.23-6.09 6-15.77-15.77-15.9 15.86-6.09-6 15.9-15.95-15.16-15.16 6.05-6.04 15.16 15.16 15.06-15.07 6.14 6.05-15.11 15.11zm48.87-41.43-2.37 13.99q2.23-.46 4.28-.67 2.04-.21 3.95-.21 5.3 0 9.35 1.58 4.04 1.58 6.78 4.37 2.75 2.79 4.14 6.54 1.4 3.74 1.4 8.06 0 5.35-1.89 9.77-1.88 4.42-5.23 7.55-3.34 3.14-7.93 4.86-4.58 1.72-9.97 1.72-3.16 0-6-.65-2.83-.65-5.32-1.74t-4.61-2.51q-2.11-1.42-3.79-3l3.54-4.88q1.11-1.58 2.93-1.58 1.16 0 2.37.74t2.77 1.63q1.55.88 3.67 1.62 2.12.75 5.09.75 3.16 0 5.58-1.02 2.42-1.03 4.02-2.86 1.61-1.84 2.42-4.38.82-2.53.82-5.51 0-5.48-3.19-8.57-3.18-3.1-9.42-3.1-4.79 0-9.81 1.77l-7.16-2.05 5.58-32.64h33.2v4.88q0 2.47-1.53 4-1.54 1.54-5.21 1.54zm84.3 23.2q0 8.79-1.88 15.28-1.88 6.48-5.21 10.71-3.32 4.24-7.86 6.3-4.53 2.07-9.78 2.07-5.26 0-9.75-2.07-4.48-2.06-7.78-6.3-3.31-4.23-5.17-10.71-1.86-6.49-1.86-15.28 0-8.83 1.86-15.3 1.86-6.46 5.17-10.69 3.3-4.23 7.78-6.3 4.49-2.07 9.75-2.07 5.25 0 9.78 2.07 4.54 2.07 7.86 6.3 3.33 4.23 5.21 10.69 1.88 6.47 1.88 15.3m-11.85 0q0-7.3-1.07-12.09t-2.86-7.63q-1.79-2.83-4.12-3.97-2.32-1.14-4.83-1.14-2.47 0-4.77 1.14t-4.07 3.97q-1.77 2.84-2.81 7.63-1.05 4.79-1.05 12.09t1.05 12.09q1.04 4.79 2.81 7.63 1.77 2.83 4.07 3.97t4.77 1.14q2.51 0 4.83-1.14 2.33-1.14 4.12-3.97 1.79-2.84 2.86-7.63t1.07-12.09m65.79 0q0 8.79-1.88 15.28-1.88 6.48-5.21 10.71-3.32 4.24-7.86 6.3-4.53 2.07-9.78 2.07-5.26 0-9.75-2.07-4.48-2.06-7.78-6.3-3.31-4.23-5.17-10.71-1.86-6.49-1.86-15.28 0-8.83 1.86-15.3 1.86-6.46 5.17-10.69 3.3-4.23 7.78-6.3 4.49-2.07 9.75-2.07 5.25 0 9.78 2.07 4.54 2.07 7.86 6.3 3.33 4.23 5.21 10.69 1.88 6.47 1.88 15.3m-11.85 0q0-7.3-1.07-12.09t-2.86-7.63q-1.79-2.83-4.12-3.97-2.32-1.14-4.83-1.14-2.47 0-4.77 1.14t-4.07 3.97q-1.77 2.84-2.81 7.63-1.05 4.79-1.05 12.09t1.05 12.09q1.04 4.79 2.81 7.63 1.77 2.83 4.07 3.97t4.77 1.14q2.51 0 4.83-1.14 2.33-1.14 4.12-3.97 1.79-2.84 2.86-7.63t1.07-12.09"/></svg>